<?xml version="1.0" standalone="no"?>
<!DOCTYPE svg PUBLIC "-//W3C//DTD SVG 20010904//EN"
 "http://www.w3.org/TR/2001/REC-SVG-20010904/DTD/svg10.dtd">
<svg version="1.0" xmlns="http://www.w3.org/2000/svg"
 width="200.000000pt" height="200.000000pt" viewBox="0 0 200.000000 200.000000"
 preserveAspectRatio="xMidYMid meet">

<g transform="translate(0.000000,200.000000) scale(0.100000,-0.100000)"
fill="#000000" stroke="none">
<path d="M1312 1637 l-62 -63 60 -59 60 -60 63 63 62 62 -60 60 -60 60 -63
-63z"/>
<path d="M580 1606 c-34 -23 -47 -45 -99 -168 -19 -46 -30 -54 -71 -48 -21 2
-40 29 -40 57 0 26 36 63 62 63 15 0 18 9 18 56 l0 57 -42 -6 c-83 -11 -133
-75 -133 -173 0 -50 5 -68 28 -103 44 -67 132 -89 205 -52 41 21 53 41 115
183 20 45 55 58 92 34 19 -12 25 -25 25 -52 0 -48 -14 -71 -50 -79 -29 -6 -30
-9 -30 -61 0 -50 2 -54 23 -54 12 0 43 10 67 23 60 30 90 87 90 173 0 70 -23
113 -79 151 -48 33 -133 32 -181 -1z"/>
<path d="M1097 1422 l-57 -58 59 -58 60 -59 31 27 c24 19 43 26 76 26 l44 0 0
-82 0 -83 65 0 65 0 0 83 0 82 43 0 c33 0 49 -6 67 -25 13 -14 26 -25 29 -25
7 0 91 78 109 102 12 15 7 24 -43 72 -31 31 -60 56 -64 56 -4 0 -18 -11 -31
-25 -23 -25 -26 -25 -180 -25 -154 0 -157 0 -178 25 -12 14 -25 25 -30 25 -4
0 -33 -26 -65 -58z"/>
<path d="M280 1011 l0 -181 55 0 55 0 0 60 0 60 220 0 220 0 0 60 0 60 -220 0
-219 0 -3 58 -3 57 -52 3 -53 3 0 -180z"/>
<path d="M1159 943 c-93 -92 -169 -171 -169 -174 0 -10 77 -89 86 -89 5 0 74
66 153 146 l144 145 32 -31 c17 -16 35 -30 41 -30 5 0 28 18 49 40 l39 40 -59
60 c-55 55 -63 60 -103 60 -44 0 -46 -2 -213 -167z"/>
<path d="M1030 1035 l-44 -45 39 -40 c21 -22 44 -40 50 -40 11 0 85 71 85 82
0 6 -76 88 -82 88 -2 0 -24 -20 -48 -45z"/>
<path d="M1518 933 c-146 -146 -148 -147 -163 -125 -9 12 -25 27 -37 33 -17 9
-26 5 -59 -27 -21 -21 -39 -43 -39 -49 0 -17 95 -104 127 -115 16 -6 39 -7 51
-3 12 5 98 84 192 178 l170 169 -42 43 c-23 24 -45 43 -48 43 -3 0 -71 -66
-152 -147z"/>
<path d="M1622 807 l-42 -43 45 -44 45 -44 45 44 45 44 -42 43 c-23 24 -45 43
-48 43 -3 0 -25 -19 -48 -43z"/>
<path d="M280 660 l0 -60 206 0 c122 0 213 -4 225 -10 14 -8 19 -21 19 -50 0
-66 -13 -70 -247 -70 l-203 0 0 -61 0 -60 228 3 c219 3 228 4 260 26 52 38 75
93 70 172 -3 55 -9 74 -32 105 -46 60 -68 65 -311 65 l-215 0 0 -60z"/>
<path d="M1070 625 c-27 -27 -40 -48 -35 -54 154 -139 157 -139 251 -49 l65
62 -45 45 -46 45 -35 -34 -35 -34 -33 32 c-18 18 -35 32 -38 32 -3 0 -25 -20
-49 -45z"/>
<path d="M1440 625 l-44 -45 48 -49 c56 -57 94 -76 132 -67 26 7 134 101 134
117 0 5 -18 27 -41 50 l-40 41 -27 -23 c-15 -13 -28 -27 -30 -31 -7 -15 -23
-8 -52 22 -16 17 -31 30 -33 30 -1 0 -23 -20 -47 -45z"/>
<path d="M1253 443 l-43 -45 38 -35 c76 -72 93 -83 129 -83 29 0 45 10 96 60
l62 59 -45 45 -44 46 -31 -30 c-17 -17 -36 -30 -41 -30 -6 0 -23 14 -39 30
-16 17 -31 30 -34 29 -3 -1 -25 -21 -48 -46z"/>
</g>
</svg>
