<?xml version="1.0" standalone="no"?>
<!DOCTYPE svg PUBLIC "-//W3C//DTD SVG 20010904//EN"
 "http://www.w3.org/TR/2001/REC-SVG-20010904/DTD/svg10.dtd">
<svg version="1.0" xmlns="http://www.w3.org/2000/svg"
 width="225.000000pt" height="225.000000pt" viewBox="0 0 225.000000 225.000000"
 preserveAspectRatio="xMidYMid meet">

<g transform="translate(0.000000,225.000000) scale(0.100000,-0.100000)"
fill="#000000" stroke="none">
<path d="M1465 2013 c-43 -6 -126 -33 -153 -51 -19 -12 -34 -13 -92 -3 -228
37 -438 -22 -590 -166 -61 -57 -135 -151 -127 -160 2 -1 30 7 63 19 50 19 80
23 204 24 113 0 158 5 205 20 46 14 88 19 180 18 104 0 130 -4 200 -28 210
-73 358 -224 429 -440 6 -17 12 -15 52 25 25 24 61 76 81 116 86 174 39 405
-109 526 -60 49 -145 87 -221 98 -63 9 -70 9 -122 2z"/>
<path d="M1350 1445 l-34 -35 35 -35 35 -35 34 35 34 35 -35 35 -35 35 -34
-35z"/>
<path d="M933 1428 c-21 -10 -39 -39 -62 -101 -8 -21 -17 -28 -34 -25 -31 4
-38 57 -8 65 15 4 21 13 21 34 0 24 -4 29 -24 29 -32 0 -76 -53 -76 -91 0 -60
45 -109 100 -109 30 0 75 45 90 90 16 48 39 65 65 47 23 -18 16 -59 -12 -72
-16 -7 -23 -18 -23 -37 0 -64 96 -15 107 54 14 90 -65 154 -144 116z"/>
<path d="M1225 1320 l-29 -30 34 -35 c30 -31 35 -33 50 -20 9 8 29 15 43 15
25 0 27 -3 27 -47 l0 -48 35 0 35 0 0 48 c0 44 2 47 27 47 14 0 35 -8 45 -17
17 -15 20 -15 48 12 17 16 30 34 30 40 0 6 -13 24 -30 40 -28 27 -31 27 -48
12 -26 -23 -193 -25 -212 -2 -17 21 -22 19 -55 -15z"/>
<path d="M760 1080 l0 -100 30 0 c28 0 30 3 30 35 l0 35 125 0 125 0 0 30 0
30 -125 0 -125 0 0 35 c0 32 -2 35 -30 35 l-30 0 0 -100z"/>
<path d="M1265 1040 l-99 -99 24 -26 24 -26 86 86 85 85 21 -20 20 -20 24 25
24 25 -34 35 c-19 19 -43 35 -55 35 -13 0 -58 -37 -120 -100z"/>
<path d="M1190 1095 l-24 -26 25 -25 25 -25 24 26 24 26 -25 25 -25 25 -24
-26z"/>
<path d="M1470 1035 l-84 -85 -21 20 c-21 20 -21 20 -45 -5 l-24 -25 34 -35
c19 -19 43 -35 55 -35 13 0 58 38 120 100 l100 100 -25 25 -25 25 -85 -85z"/>
<path d="M1530 965 l-24 -26 25 -25 25 -25 24 26 24 26 -25 25 -25 25 -24 -26z"/>
<path d="M760 880 l0 -30 114 0 c91 0 118 -3 130 -16 9 -8 16 -21 16 -28 0
-30 -25 -36 -142 -36 l-118 0 0 -35 0 -35 123 0 c143 0 166 8 186 66 17 48 9
87 -24 120 -23 23 -30 24 -155 24 l-130 0 0 -30z"/>
<path d="M1211 856 l-22 -23 41 -37 c22 -20 45 -36 50 -36 5 0 28 17 51 37
l40 36 -25 26 c-25 24 -26 24 -46 6 -19 -17 -21 -17 -38 -2 -24 22 -24 21 -51
-7z"/>
<path d="M1421 856 l-22 -23 41 -37 c22 -20 45 -36 50 -36 5 0 28 17 51 37
l40 36 -25 26 c-25 24 -26 24 -46 6 -19 -17 -21 -17 -38 -2 -24 22 -24 21 -51
-7z"/>
<path d="M1320 755 l-24 -25 34 -35 c19 -19 43 -35 55 -35 12 0 36 16 55 35
l34 35 -24 25 -24 25 -21 -20 c-21 -20 -21 -20 -41 0 l-20 20 -24 -25z"/>
</g>
</svg>
