<?xml version="1.0" standalone="no"?>
<!DOCTYPE svg PUBLIC "-//W3C//DTD SVG 20010904//EN"
 "http://www.w3.org/TR/2001/REC-SVG-20010904/DTD/svg10.dtd">
<svg version="1.0" xmlns="http://www.w3.org/2000/svg"
 width="216.000000pt" height="323.000000pt" viewBox="0 0 216.000000 323.000000"
 preserveAspectRatio="xMidYMid meet">

<g transform="translate(0.000000,323.000000) scale(0.100000,-0.100000)"
fill="#000000" stroke="none">
<path d="M0 2151 l0 -1069 488 -487 c268 -269 511 -511 540 -538 l52 -50 535
534 535 534 0 1073 0 1072 -1075 0 -1075 0 0 -1069z m1320 767 c0 -4 -55 -61
-122 -128 l-122 -121 -126 126 -125 125 125 125 125 125 122 -122 c68 -68 123
-126 123 -130z m-600 -243 l64 -65 290 0 290 0 68 67 68 68 125 -125 125 -125
-125 -125 -125 -125 -68 68 -68 67 -72 0 -72 0 0 -195 0 -196 -31 17 c-58 30
-136 29 -236 -1 l-23 -7 0 191 0 191 -71 0 c-62 0 -75 -3 -93 -23 -11 -12 -43
-42 -69 -66 l-48 -45 -120 120 c-65 65 -119 123 -119 129 0 10 230 245 240
245 3 0 35 -29 70 -65z m-190 -703 l0 -88 70 -69 c39 -38 70 -74 70 -80 0 -5
-41 -50 -90 -100 l-90 -89 -73 72 -72 72 -93 0 -92 0 0 185 0 185 185 0 185 0
0 -88z m1470 -97 l0 -185 -93 0 -93 0 -322 -320 c-351 -348 -353 -350 -451
-335 -40 6 -56 18 -168 128 l-124 121 96 95 95 96 70 -70 70 -70 275 275 275
276 0 87 0 87 185 0 185 0 0 -185z m-815 85 c17 -11 75 -64 129 -119 l100
-100 -98 -97 -97 -97 -67 66 c-37 37 -70 67 -73 67 -3 0 -137 -132 -299 -294
-271 -270 -299 -295 -349 -311 -92 -30 -179 -13 -248 49 -22 19 -23 25 -23
210 l0 191 93 -93 93 -93 312 315 c253 255 319 316 349 324 50 14 141 5 178
-18z m793 -829 c-58 -70 -137 -109 -200 -97 -50 9 -102 48 -205 156 l-92 95
96 98 97 98 68 -68 68 -68 93 93 92 92 3 -186 c2 -180 2 -186 -20 -213z
m-1193 -91 c38 38 74 70 79 70 5 0 7 -2 4 -6 -3 -3 35 -44 84 -92 l89 -88
-104 -106 c-57 -59 -119 -116 -138 -127 -44 -27 -117 -28 -167 -2 -38 20 -250
226 -241 235 2 3 44 46 94 96 l89 90 71 -70 71 -70 69 70z m587 3 l67 -67 63
59 c35 33 65 63 68 67 7 8 192 -172 188 -183 -6 -16 -184 -193 -222 -221 -45
-33 -116 -38 -170 -13 -17 8 -81 64 -141 125 l-109 109 90 95 c49 52 91 94 94
95 2 1 35 -29 72 -66z m-362 -368 l66 -65 64 65 c35 36 69 65 75 65 5 0 50
-41 99 -91 l90 -90 -172 -170 c-94 -93 -169 -166 -166 -162 2 4 -68 79 -156
168 l-160 161 92 92 c50 51 94 92 97 92 3 0 35 -29 71 -65z"/>
</g>
</svg>
