<?xml version="1.0" standalone="no"?>
<!DOCTYPE svg PUBLIC "-//W3C//DTD SVG 20010904//EN"
 "http://www.w3.org/TR/2001/REC-SVG-20010904/DTD/svg10.dtd">
<svg version="1.0" xmlns="http://www.w3.org/2000/svg"
 width="186.000000pt" height="298.000000pt" viewBox="0 0 186.000000 298.000000"
 preserveAspectRatio="xMidYMid meet">
<metadata>
Created by potrace 1.15, written by Peter Selinger 2001-2017
</metadata>
<g transform="translate(0.000000,298.000000) scale(0.100000,-0.100000)"
fill="#dedede" stroke="none">
<path d="M30 1910 l0 -1071 24 -47 c17 -32 125 -147 348 -369 383 -381 379
-378 538 -378 172 0 171 0 561 392 288 290 328 334 343 377 14 45 16 152 16
1108 l0 1058 -915 0 -915 0 0 -1070z m1130 715 c0 -13 -202 -215 -215 -215 -5
0 -58 48 -117 107 l-108 108 112 112 113 113 107 -107 c60 -59 108 -112 108
-118z m-220 -275 l274 0 56 55 55 55 113 -113 112 -112 -113 -113 -112 -112
-55 55 -54 55 -78 0 -78 0 0 -159 0 -159 -37 14 c-49 17 -108 17 -158 -1 -22
-8 -41 -15 -42 -15 -2 0 -3 72 -3 160 l0 160 -78 0 -78 0 -54 -55 -54 -55
-108 107 c-60 59 -108 112 -108 118 0 5 48 58 107 117 l108 108 55 -55 56 -55
274 0z m77 -595 c37 -16 213 -180 213 -200 0 -6 -36 -46 -80 -90 l-80 -80 -62
63 -63 62 -272 -272 -273 -273 -85 85 -85 85 302 302 c167 167 316 309 333
318 39 19 106 19 152 0z m-535 -287 l-82 -83 -85 85 -85 85 82 82 83 83 85
-85 85 -85 -83 -82z m863 -227 c-338 -337 -342 -340 -437 -325 -37 6 -57 21
-151 113 l-108 105 83 83 83 83 62 -62 63 -63 273 273 272 272 85 -85 85 -85
-310 -309z m227 -18 c43 -43 78 -82 78 -88 0 -6 -36 -46 -80 -90 l-80 -80 -85
85 -85 85 82 82 c46 46 85 83 88 83 2 0 40 -35 82 -77z m-1027 -323 l59 -60
61 60 c33 33 65 60 71 60 5 0 45 -36 89 -80 l80 -80 -95 -95 c-105 -106 -137
-125 -205 -125 -65 0 -97 20 -202 123 l-93 92 82 82 c46 46 85 83 88 83 3 0
32 -27 65 -60z m672 -2 l63 -62 65 64 65 65 82 -83 83 -82 -95 -96 c-52 -52
-107 -102 -122 -110 -35 -18 -121 -18 -156 0 -15 8 -70 58 -122 110 l-95 96
80 80 c44 44 82 80 84 80 3 0 34 -28 68 -62z m-207 -333 l65 65 83 -83 83 -83
-109 -106 c-99 -97 -113 -107 -156 -113 -82 -13 -117 5 -230 115 l-101 99 85
86 85 85 65 -65 65 -65 65 65z"/>
</g>
</svg>
